<?xml version="1.0" standalone="no"?>
<!DOCTYPE svg PUBLIC "-//W3C//DTD SVG 20010904//EN"
 "http://www.w3.org/TR/2001/REC-SVG-20010904/DTD/svg10.dtd">
<svg version="1.0" xmlns="http://www.w3.org/2000/svg"
 width="88.000000pt" height="53.000000pt" viewBox="0 0 88.000000 53.000000"
 preserveAspectRatio="xMidYMid meet">
<g transform="translate(0.000000,53.000000) scale(0.100000,-0.100000)"
fill="#FF465B" stroke="none">
<path d="M587 511 l-67 -6 27 -26 c16 -14 38 -29 51 -33 20 -7 23 -13 20 -54
l-3 -47 -55 -19 c-68 -24 -67 -22 -47 -44 10 -10 17 -23 17 -28 0 -5 5 -16 10
-24 7 -12 19 -3 61 43 28 31 56 57 63 57 6 0 28 8 48 18 23 12 42 16 51 10 13
-7 14 -4 7 22 -5 17 -9 34 -10 38 -1 4 -12 6 -25 5 -14 -1 -22 3 -20 10 17 57
16 67 -10 67 -14 0 -25 5 -25 10 0 6 -6 9 -12 8 -7 -1 -43 -4 -81 -7z m63 -30
c-16 -31 -24 -32 -66 -6 l-39 24 58 1 c54 0 57 -1 47 -19z m60 -12 c0 -25 -11
-49 -21 -49 -5 0 -7 11 -3 24 3 13 1 27 -5 30 -7 5 -11 -7 -11 -32 0 -23 -6
-45 -15 -52 -8 -7 -15 -18 -15 -24 1 -6 9 -1 19 11 18 22 19 22 35 4 16 -18
15 -19 -15 -30 -25 -9 -35 -8 -41 1 -11 17 -1 84 17 112 17 26 55 30 55 5z
m43 -73 c9 -22 -30 -26 -49 -5 -16 18 -16 19 13 19 17 0 33 -6 36 -14z m-157
-111 c-37 -45 -56 -50 -56 -15 0 10 -5 20 -11 22 -6 2 2 9 17 16 27 11 27 11
10 -3 -33 -25 -2 -17 34 10 18 14 36 23 38 20 3 -2 -12 -25 -32 -50z"/>
<path d="M254 415 c9 -13 16 -26 16 -29 0 -2 -26 2 -57 9 -32 7 -60 11 -63 8
-3 -2 17 -24 45 -46 83 -70 113 -101 120 -124 5 -20 3 -23 -22 -23 -39 0 -73
-11 -73 -22 0 -6 6 -8 13 -5 47 19 50 20 43 9 -10 -16 5 -15 31 3 19 13 21 13
26 -5 4 -16 0 -20 -18 -20 -13 0 -31 -3 -41 -7 -12 -4 -15 -3 -10 5 4 7 1 12
-7 12 -8 0 -17 -7 -21 -15 -4 -12 4 -15 45 -15 53 0 74 8 128 49 19 14 43 25
53 23 21 -4 24 16 5 43 -11 13 -22 17 -44 12 -29 -6 -29 -5 -42 54 -12 60 -12
60 -68 84 -70 31 -79 31 -59 0z m100 -45 c-1 -5 -2 -15 -2 -22 -1 -6 -12 -2
-25 10 -13 12 -29 22 -35 22 -7 0 -12 2 -12 4 0 2 -3 11 -6 20 -5 14 0 13 37
-4 24 -10 44 -24 43 -30z m-90 0 c32 -7 56 -19 70 -37 l20 -27 6 25 6 24 6
-27 c3 -15 1 -25 -3 -22 -13 8 -11 -10 3 -24 9 -9 5 -12 -22 -12 -26 0 -47 12
-94 52 -84 71 -84 71 -61 64 11 -3 42 -10 69 -16z m181 -112 c14 -6 25 -16 25
-22 0 -6 -4 -6 -11 1 -9 9 -20 4 -43 -18 -42 -40 -50 -36 -26 11 23 45 20 44
55 28z m-73 -37 c-19 -43 -24 -43 -40 7 -11 32 -11 32 23 32 l34 0 -17 -39z"/>
<path d="M163 305 c0 -8 4 -12 9 -9 5 3 6 10 3 15 -9 13 -12 11 -12 -6z"/>
<path d="M183 143 c-20 -7 -15 -23 7 -23 11 0 20 4 20 9 0 13 -12 19 -27 14z"/>
<path d="M769 136 c-2 -2 -2 -32 -1 -65 4 -65 19 -83 24 -29 2 22 9 34 21 36
14 3 17 -4 17 -32 0 -25 4 -36 15 -36 11 0 15 11 15 39 0 44 -19 66 -50 56
-16 -5 -20 -2 -20 14 0 19 -10 27 -21 17z"/>
<path d="M20 71 c0 -50 3 -61 16 -61 14 0 16 7 11 40 -6 49 8 44 17 -5 9 -46
30 -45 49 3 l16 37 0 -37 c1 -24 6 -38 14 -38 8 0 12 19 12 60 0 49 -3 60 -16
60 -10 0 -23 -18 -34 -47 l-18 -47 -17 45 c-10 24 -25 45 -34 47 -13 3 -16 -7
-16 -57z"/>
<path d="M450 120 c0 -5 7 -10 15 -10 11 0 15 -12 15 -50 0 -38 4 -50 15 -50
11 0 15 12 15 50 0 38 4 50 15 50 8 0 15 5 15 10 0 6 -20 10 -45 10 -25 0 -45
-4 -45 -10z"/>
<path d="M180 60 c0 -27 5 -50 10 -50 6 0 10 23 10 50 0 28 -4 50 -10 50 -5 0
-10 -22 -10 -50z"/>
<path d="M229 107 c0 -1 -1 -23 -2 -50 -1 -32 2 -47 11 -47 7 0 12 14 12 35 0
28 4 35 20 35 16 0 20 -7 20 -35 0 -24 5 -35 15 -35 17 0 21 55 6 79 -7 10
-78 26 -82 18z"/>
<path d="M344 85 c-13 -21 -15 -31 -6 -50 9 -20 18 -24 54 -23 l43 0 -3 49
c-2 27 -8 49 -13 49 -5 0 -9 -5 -9 -12 0 -9 -3 -9 -12 0 -19 19 -36 14 -54
-13z m61 -30 c0 -30 -39 -27 -43 3 -3 20 0 23 20 20 15 -2 23 -10 23 -23z"/>
<path d="M567 92 c-21 -23 -22 -56 -3 -71 19 -16 68 -10 74 8 3 10 -3 12 -26
6 -18 -3 -33 -2 -37 4 -4 7 8 11 34 11 46 0 51 10 21 40 -25 25 -42 25 -63 2z
m50 -18 c2 -5 -6 -10 -17 -10 -20 0 -25 7 -13 20 9 8 26 3 30 -10z"/>
<path d="M678 99 c-21 -12 -24 -59 -6 -77 17 -17 53 -15 68 3 11 13 8 15 -21
13 -28 -3 -34 0 -34 17 0 16 6 20 33 17 36 -2 38 0 16 22 -18 18 -32 20 -56 5z"/>
</g>
</svg>
